<svg preserveAspectRatio="xMinYMin" viewBox="0 0 610 560" width="2000px" xmlns="http://www.w3.org/2000/svg" xmlns:xlink="http://www.w3.org/1999/xlink"><image height="560" preserveAspectRatio="none" width="610" x="-1" xlink:href="https://www.backstabbr.com/images/map_background.png" y="-1"/><path d="m233 415 5 16 9 11 3-4 13-4-10-16-7-2-6-1-4-4z" fill="none" stroke="#fff"/><path d="m408 470 2 3 4 2-4 7-1 5 8-1v3l6-2 9 6 20 2 14-4 2-12v-18l-4-4-22 3-2-2-10-3-4-5-6 1-8 3 1 10z" fill="none" stroke="#fff"/><path d="m271 464 5 10 14 13 4 15-5 9 1 3 5 1 13-15 3-9-7-7-11-3-14-23z" fill="none" stroke="#fff"/><path d="m322 480-25-24 3-3h-10l-12-10-6-19-12-7 1-16 9-3 6 1-1 4 3 7 4-9 4 1 3 16 17 18 25 18v23l4 3z" fill="none" stroke="#fff"/><path d="m238 431 9 11 1 5 8 11 15 6 5 10 14 13 4 15-5 9h-4v-3l-9 2h-13l-6-3-5 1-5 5-11 11-3-1-9 4-1-9-5-2v-26h2l4-22-2-10h-4v-4l5-4 2-6v-8l-1-5z" fill="none" stroke="#fff"/><path d="m276 399-1 4 3 7 4-9 4 1 3 16 17 18 25 18-1-9 7 1-7-9-3-8 4-5-1-8 2-6-9-2-2-10-10-4-3-11-9 2-5-5-5 5-13 1 3 3z" fill="none" stroke="#fff"/><path d="m191 299 3 4 12 3-1 5 3 4 2 11-5 5-13-8-8-8-15-4 4-10z" fill="none" stroke="#fff"/><path d="m362 33-5 6-14 5-19 10-4 10-10 11-1 9-6 2-11 25-15 21-8 2-5 8-6-1-22 13h-38l-27 27v16l-13-4-6 1 2-6 7-3 1-4-14-4v-177h214z" fill="none" stroke="#fff"/><path d="m142 417 7-14 8-6 11-2 5 1 5-6v-9l16 1 3 3 6-6 4 7-3 4 3 6-6 3 3 3-1 8 8 6-13 5-10 1-12-5-7-5-11 6v7l-4 2z" fill="none" stroke="#fff"/><path d="m244 254-1 3 2 6-1 7v3l-9 4-1-3-4-1-4 2 1 5-2 12-5 6-5-1-2 5 19 6 9 8 2 6 20-12-2-14 3-3-2-6 4-4v-8l-5-1-1-5-4-3v-3l-2-8z" fill="none" stroke="#fff"/><path d="m102 317-2 5 3 6 6 1 14 15-1 6 1 7 5 6-7 19 1 2-10 15-11-3-5 1-24-13-13-3-5-6-6-1-2 4-7-3-6 6 2 3-3 12-2 10-13 21h-3l-4 6 3 7 2 1-3 9 1 4-5 8 11 7 8-1 6 7 1 9 3 6v5l-4 1-16 22-17 2v-247h58z" fill="none" stroke="#fff"/><path d="m339 487 7 11h4l-3 2 5 8 15-1 4 4-16-1-5 4 7 7 2 12 1-5 7 8 1-5 8 6-5-17 7 1-1-8 9 3-1-7-15-15 1-3 7 3-10-11 3-6 8 7 3-1-1-6 5 1-6-6h12l-4-12-12 4h-7l-8 3-5 4h-6v6z" fill="none" stroke="#fff"/><path d="m70 261-6-11 3-8 4 3 10-11-7-6 6-3-2-7 4-1 7 3h5l1-2-1-2h3l4-4h9l9 5 1 10h10v-4l8-6v-3l-8-6-1-11 10-8 1-7 8-5v-177h-148v273h58z" fill="none" stroke="#fff"/><path d="m138 214-8-6-1-11 10-8 1-7 8-5 14 4-1 4-7 3-2 6-6 6-2 13z" fill="none" stroke="#fff"/><path d="m226 275 1 5-2 12-5 6-5-1-2 5-3 11-2 2-3-4 1-5-12-3-3-4 7-10 7-13v3h2l4-5z" fill="none" stroke="#fff"/><path d="m275 203 2 15-1 6 6 12-3 4v3l3 10 7 1 5-9 11-1 7-15-1-9 3-11 8-3 6-3 3-10-5-10-6-1 1-21 9-15 13-8 8-10-4-7 2-9 6-8 7 3-6-36-14-10-1 4-11-1 2 10-8-3-13 30-3 3 1 11-9 11 1 6-9 1-2 31-5 6 2 7-8 27z" fill="none" stroke="#fff"/><path d="m555 438-4-1-31 4-6-3-3 2-9-7-21 5-11 9-6 10 4 4v18l-2 12h7l17-11 11 2 7-2 23-20 15 2 9-2 2-11z" fill="none" stroke="#fff"/><path d="m609 493-25-15-21 1-1-8-6-4-1-7 2-11-2-11 15-11 19 15 5-3 9 2 6-1z" fill="none" stroke="#fff"/><path d="m394 376 1 6 6 3 5 11-5 6h-14l-20 4-2 6-5 1-18-3-4 2-3-2h-3l-9-2-2-10-10-4-3-11 3-8 11-5 13-16 2-4 13-3 10 4 8 2 9 7 1 3 6 2z" fill="none" stroke="#fff"/><path d="m169 311-16 4 2 5-5-1-2 10 11 2h6l7-3 16 4 4-9-8-8z" fill="none" stroke="#fff"/><path d="m278 443-6-19-12-7 1-16 9-3 6 1 3-10-3-3-8-1-9 3-4 6-5 3-4-5-13 12 3 7 4 4 6 1 7 2 10 16 11 13z" fill="none" stroke="#fff"/><path d="m383 327 2 5 14 6 5 16-1 6 8 1 3 11 9 4 9-4 2-12 11-10 15-5 6-38 4-4-2-8-12-3-66 14-4 3z" fill="none" stroke="#fff"/><path d="m213 302-3 11-2 2 2 11-5 5-1 7 7 8 8-2 18-22h6l-2-6-9-8z" fill="none" stroke="#fff"/><path d="m534 164 30-5 9-16 25-11 11-15v-117h-69l-5 9-5-3-13 13-1 14-3 5v-15l-6-3-2 6-6 7-7 15 3 10-7 2-9-3-2-2 4-5-8-7-7 2 6 17 6 4v8l-6-2-4 2-11 17 12 9-2 6-5 3-18-8-2 9 5 5 7 4-2 3-18-4-8-15v-9l-12-6-2-5 33 1 12-5 2-13-6-5-36-14-12 2-4-4-4 3-9 13-1 7 6 5-1 19 9 18 1 8 8 12 4 17-4 5 2 9-10 16 1 6 8 1 3 3h-6l-8 5-1 5-12-1-16 2-2 4 3 3 10 1 12-1 11 12 4 11 12 1 7-4 11-14 8-2 4 4 6-3-1-3 2-13 18-11 13 1 26-15z" fill="none" stroke="#fff"/><path d="m279 243-4-1-6 1-3-3 1-6-1-13-3 2-15 1-3 13-2 10 1 7 10 1h12l5 5 7-6-1-4 3-2z" fill="none" stroke="#fff"/><path d="m146 365 3 7 7 2 9-9 20-21 3-12-16-4-7 3h-6l-11-2-2 8z" fill="none" stroke="#fff"/><path d="m362 107 6 1 4 12-6 1-7 15-14 15 2 9 3 5-2 13 1 6 8 2 8 5 19-6 18-8 10-16-2-9 4-5-4-17-8-12-1-8-9-18 1-19-6-5 1-7-2-3 2-4-9-6-9 1-1 12-14 1-9-8-4 7 14 10z" fill="none" stroke="#fff"/><path d="m173 301-4 10-16 4 2 5-5-1-6-1-2-6-6-2v16l-12-3-2-5-20-1-14-14 12-12 10 1 10 3 4-4 10 3 13 1 13 3 8-2z" fill="none" stroke="#fff"/><path d="m163 226v13l5 7 2 6-1 13-3 4-13 2-3-7 1-16 4-9v-11z" fill="none" stroke="#fff"/><path d="m234 366 9 4 3-1 4 2 17-3 4 2-2-8h6l6-6-5-10-8-3-4-14 2-4 12 1 10-5-4-7 4-9-25 5-20 12h-6l-18 22-8 2 2 6-4 11 13 2 3-3 7 1z" fill="none" stroke="#fff"/><path d="m100 291 12-4 10-6 8 1-3-6-8-4h-3l-1-7 13-3h15l7 2 3 7-3 6-5 4 2 14-13-1-10-3-4 4-10-3z" fill="none" stroke="#fff"/><path d="m266 255 5 5 7-6-1-4 3-2-1-5 3 10 7 1 5-9 11-1 7-15-1-9h48l-10 9-2 14v5l1 6-4 8-7 2-3 9-6 1-2-9-12 1-7 7-13 2-8-1 1-7-7-1-14 9-5-1-1-5-4-3v-3l-2-8z" fill="none" stroke="#fff"/><path d="m207 386-3 4 3 6-6 3 3 3-1 8 8 6 11-6 11 5 3-4-3-7 13-12-3-4-14-3-2 5-6-5-8 2z" fill="none" stroke="#fff"/><path d="m365 412-5 1-18-3-4 2-3-2h-3l-2 6 1 8-4 5 3 8 7 9 9 6v14l4 5h6l5-4 8-3-4-3 6-5-5-17 5-1-3-5-3-8 2-4z" fill="none" stroke="#fff"/><path d="m241 209 5 1 20-9 4-8 5 10 2 15-1 6 6 12-3 4v3l-4-1-6 1-3-3 1-6-1-13-3 2-15 1h-7z" fill="none" stroke="#fff"/><path d="m311 220 3-11 8-3 6-3 3-10-5-10-6-1 1-21 9-15 13-8 8-10-4-7 2-9 6-8 7 3 6 1 4 12-6 1-7 15-14 15 2 9 3 5-2 13 1 6 8 2 8 5 19-6 18-8 1 6 8 1 3 3h-6l-8 5-1 5-12-1-16 2-2 4-4 2 3 6 4 3 1 8 4 6-4 2-7-1-7-8z" fill="none" stroke="#fff"/><path d="m294 275-8-1 1-7-7-1-14 9v8l-4 4 2 6-3 3 2 14 25-5 8-5 1-4-5-6z" fill="none" stroke="#fff"/><path d="m115 469-5-8 14-17 7-5 15-1 11-6 1-7v-7l11-6 7 5 12 5 10-1 13-5 11-6 11 5 5 16h-14l-3 3-10 2 2 15 5 3v4l-4 3-8 1-1 4h-51l-6-3-6 6z" fill="none" stroke="#fff"/><path d="m417 489 3 6-3 3v9l6 3 4 14 8-1v7l6-4 6 2 6 6 11-3 2-10 9-1 10 8 6 2 14-4 6-12 9 3 7-9 3 1 6-15 9-8 10-2 8-5-1-8-6-4-1-7-9 2-15-2-23 20-7 2-11-2-17 11h-7l-14 4-20-2-9-6z" fill="none" stroke="#fff"/><path d="m289 511 1 3 5 1 13-15 3-9-7-7 6-4 8 5h4v-5h13l4 7 7 11h4l-3 2 5 8 15-1 4 4-16-1-5 4 7 7 2 12 1-5 7 8 1-5 8 6 7 7-3 3 3 3 17 4v5h-168l2-8-2-7-7-9 6-4 5-7 11-11 11 6 15 12 8 1 1-11 3-8v-2z" fill="none" stroke="#fff"/><path d="m347 243v5l1 6-4 8-7 2-3 9-6 1-2-9-12 1-7 7-13 2-2 15 5 6-1 4 24 3 4-4 2-7 15-5 4 2 14-3 6-5 2-16-5-5-6 1-2-10z" fill="none" stroke="#fff"/><path d="m333 330h8l3 2 9-5 3-4 5 1 6 5 7-2 5-3 4 3 2 5 14 6 5 16-1 6 1 11-10 5-10-11-6-2-1-3-9-7-8-2-10-4-13 3-8-4-7 1-1-8 1 8-1-8 4 1 4-2z" fill="none" stroke="#fff"/><path d="m166 269 2 1 3-2 6 2 1 4-2 9-11 10 7 1-4 2-8 2-13-3-2-14 5-4 3-6z" fill="none" stroke="#fff"/><path d="m203 520-24-5-10 3-19-7-33-2-11 2-7 4-10-3-5 6-5 2-11-4v-5l-4 3-18-5-4-7-1-8-4 1-4 1-16 22-17 2v39h195l2-32z" fill="none" stroke="#fff"/><path d="m403 360 1 11-10 5 1 6 6 3 5 11-5 6h-14l-20 4-2 6 2 9 3 4 5-2 7 4 8-2 8 2 6-5 6-2h12l8 3 2-14 7-5-1-7-11 2-5-17 1-6-9-4-3-11z" fill="none" stroke="#fff"/><path d="m281 356-5-10-8-3-4-14 2-4 12 1 10-5 9 1 14 12 3-2 7 7 1 8-6 1-13-2-8 3-3 8z" fill="none" stroke="#fff"/><path d="m245 237-2 10 1 7-1 3 2 6-1 7v3l-9 4-1-3-4-1-4 2-15-1v-37z" fill="none" stroke="#fff"/><path d="m438 397 8-19 13-3 2 2-2 2 6 4 11-2 2 2-6 2-4 7 9 4v5l9 3 2-7 6-1 3-4 10-3-1-5-12 3-9-9 18-14 23-13 1 3-13 11 3 6h3l-5 13-4-1-1 3 7 7 11 1 26 12 13 2 6 9-3 10 19 15 5-3 9 2 6-1v-110h-12l-28-9-5-16-10-1-5-20-16-1-7 4-10-1-11-6-11 15-17-6-9 6 2 8-4 4-6 38-15 5-11 10-2 12-9 4-1 6 5 17z" fill="none" stroke="#fff"/><path d="m152 194 6-1 13 4-1 5-5 8-7 4-7 1 6 1 4 2 2 8-8 2-10-11-1-4 2-13z" fill="none" stroke="#fff"/><path d="m134 417-11-5-10-5-1-8-11-3-5 1-24-13-13-3-5-6-6-1-2 4-7-3-6 6 2 3-3 12 11-1-1 4 13 1 7 7-1 4-9 1-10 20-5-1 3 10-6 6 2 10-9 11 6 7 1 9 3 6 10-2 5 1 8-3 18 5 5 3 3-9 4-2 8 1 9-10 6-1 2-4-5-8 14-17 7-5 15-1 11-6 1-7-4 2-12-10-7-3z" fill="none" stroke="#fff"/><path d="m413 464-1-10 8-3 6-1-4-9 3-14 4-1 1-3-8-3h-12l-6 2-6 5-8-2-8 2-7-4-5 2-3-4-2 4 3 8 3 5-5 1 5 17-6 5 4 3h7l12-4 4 12 8-4 8 2 5-6-1-10z" fill="none" stroke="#fff"/><path d="m100 291 12-4 10-6 8 1-3-6-8-4h-3l-1-7 13-3-2-6-5 1 11-7h3l4-10-3-11-6-2h-10l-10 5-1 14-11 13-11-2-17 4-12 12 30 30z" fill="none" stroke="#fff"/><path d="m333 330-7-3-3-5-3-19 4-4 2-7 15-5 4 2 14-3 6-5 7 2 7 7 7 19-3 18-4-3-5 3-7 2-6-5-5-1-3 4-9 5-3-2z" fill="none" stroke="#fff"/><path d="m540 0-5 9-5-3-13 13-1 14-3 5v-15l-6-3-2 6-6 7-7 15 3 10-7 2-9-3-2-2 4-5-8-7-7 2 6 17 6 4v8l-6-2-4 2-11 17 12 9-2 6-5 3-18-8-2 9 5 5 7 4-2 3-18-4-8-15v-9l-12-6-2-5 33 1 12-5 2-13-6-5-36-14-12 2-4-4-4 3-6-1 4-6-1-3-10-5-2 7-2-7-3-2-3 7-3-5-5 9v-9h-4v-33z" fill="none" stroke="#fff"/><path d="m292 357 3-8 8-3 13 2 6-1 7-1 8 4-2 4-13 16-11 5-3 8-9 2-5-5 1-18z" fill="none" stroke="#fff"/><path d="m304 484 6-4 8 5h4v-5l-25-24 3-3h-10l-12-10-4 4 5 4 1 4-1 3 14 23z" fill="none" stroke="#fff"/><path d="m247 442 1 5 8 11 15 6 8-6 1-3-1-4-5-4-11-13-13 4z" fill="none" stroke="#fff"/><path d="m232 559 2-8-2-7-7-9 6-4 5-7-3-1-9 4-1-9-5-2-6 1-4 4-5-1-6 7-2 32z" fill="none" stroke="#fff"/><path d="m609 117-11 15-25 11-9 16-30 5-19 5-26 15-13-1-18 11-2 13 1 3-6 3-4-4-8 2-11 14-7 4-12-1-4 11-1 36-12 3-3 7-10 5 7 19 4-3 66-14 12 3 9-6 17 6 11-15 11 6 10 1 7-4 16 1 5 20 10 1 5 16 28 9h12z" fill="none" stroke="#fff"/><path d="m37 490 10-2 5 1 8-3 18 5 5 3 3-9 4-2 8 1 9-10 6-1 2-4h27l8 2 4-5h51l1 10-2 9 4 7h4l5-3 1 1v26l-6 1-4 4-5-1-24-5-10 3-19-7-33-2-11 2-7 4-10-3-5 6-5 2-11-4v-5l-4 3-18-5-4-7-1-8-4 1z" fill="none" stroke="#fff"/><path d="m369 202-4 2 3 6 4 3 1 8 4 6-4 2-7-1-7-8-10 9-2 14 7 8 2 10 6-1 5 5-2 16 7 2 7 7 10-5 3-7 12-3 1-36 4-11-4-11-11-12-12 1-10-1z" fill="none" stroke="#fff"/><path d="m245 237 3-13h-7v-15l-10-8-2-9 4-6-2-6 2-13 4-7-1-6h-38l-27 27v16l-1 5-5 8-7 4-7 1 6 1 4 2 2 8v13l5 7 2 6-1 13-3 4 2 1 3-2 6 2 1 4-2 9-11 10 7 1-4 2 5 5 18-2 7-10 7-13v3h2l4-5v-37z" fill="none" stroke="#fff"/><path d="m331 454v23l4 3 4 7 11-10v-6l-4-5v-14l-9-6-7-1z" fill="none" stroke="#fff"/><path d="m530 509 6-15 9-8 10-2 8-5 21-1 25 15v66h-81l4-24-6-5-1-12z" fill="none" stroke="#fff"/><path d="m128 363-7 19 1 2-10 15 1 8 10 5 11 5 1-3 7 3 7-14 8-6 11-2-5-8 2-4-7-3-2-6-7-2-3-7z" fill="none" stroke="#fff"/><path d="m150 319-6-1-2-6-6-2v16l-12-3-2-5-20-1-2 5 3 6 6 1 14 15-1 6 1 7 5 6 18 2v-28l2-8z" fill="none" stroke="#fff"/><path d="m234 366 9 4 3-1 4 2 17-3 4 2-2-8h6l6-6 11 1 3 5-1 18-5 5-13 1-8-1-9 3-4 6-5 3-4-5-3-4 2-4-4-6-7-4z" fill="none" stroke="#fff"/><path d="m288 321 9 1 14 12 3-2 7 7 4 1 4-2 4-8-7-3-3-5-3-19-24-3-8 5-4 9z" fill="none" stroke="#fff"/><path d="m435 530 6-4 6 2 6 6 11-3 2-10 9-1 10 8 6 2 14-4 6-12 9 3 7-9 3 1-5 9 1 12 6 5-4 24h-128v-5l14-2 2-3z" fill="none" stroke="#fff"/><path d="m128 262-2-6-5 1 11-7h3l4-10-3-11-6-2v-4l8-6v-3l6-1 1 4 10 11v11l-4 9-1 16-7-2z" fill="none" stroke="#fff"/><path d="m32 396-2 10-13 21h-3l-4 6 3 7 2 1-3 9 1 4-5 8 11 7 8-1 9-11-2-10 6-6-3-10 5 1 10-20 9-1 1-4-7-7-13-1 1-4z" fill="none" stroke="#fff"/><path d="m440 458-10-3-4-5-4-9 3-14 4-1 1-3 2-14 7-5-1-7 8-19 13-3 2 2-2 2 6 4 11-2 2 2-6 2-4 7 9 4v5l9 3 2-7 6-1 3-4 10-3-1-5-12 3-9-9 18-14 23-13 1 3-13 11 3 6h3l-5 13-4-1-1 3 7 7 11 1 26 12 13 2 6 9-3 10-15 11-4-1-31 4-6-3-3 2-9-7-21 5-11 9-6 10-22 3z" fill="none" stroke="#fff"/><path d="m376 537-5-17 7 1-1-8 9 3-1-7-15-15 1-3 7 3-10-11 3-6 8 7 3-1-1-6 5 1-6-6h12l8-4 8 2 2 3 4 2-4 7-1 5 8-1v3l3 6-3 3v9l6 3 4 14 8-1v7l-19 19-4-2-25-1-4-2z" fill="none" stroke="#fff"/><path d="m397 48-6-1 4-6-1-3-10-5-2 7-2-7-3-2-3 7-3-5-5 9v-9h-4l-5 6-14 5-19 10-4 10-10 11-1 9-6 2-11 25-15 21-8 2-5 8-6-1-22 13 1 6-4 7-2 13 2 6-4 6 2 9 10 8 5 1 20-9 4-8 5 10 4 1 8-27-2-7 5-6 2-31 9-1-1-6 9-11-1-11 3-3 13-30 8 3-2-10 11 1 1-4 4-7 9 8 14-1 1-12 9-1 9 6-2 4 2 3z" fill="none" stroke="#fff"/><path d="m192 323 13 8-1 7 7 8 2 6-4 11-1 4-14 15-16-1v9l-5 6-5-1-5-8 2-4-7-3-2-6 9-9 20-21 3-12z" fill="none" stroke="#fff"/><g font-family="Verdana" font-size="9" text-anchor="middle"><text x="246" y="425"><tspan dy="3.64594">Tus</tspan></text><text x="443" y="486"><tspan dy="3.645971">Con</tspan></text><text x="300" y="492"><tspan dy="3.645971">Nap</tspan></text><text x="314" y="460"><tspan dy="3.64594">ADR</tspan></text><text x="251" y="495"><tspan dy="3.64594">TYS</tspan></text><text x="311" y="425"><tspan dy="3.64594">Tri</tspan></text><text x="198" y="321"><tspan dy="3.645971">Bel</tspan></text><text x="226" y="70"><tspan dy="3.645978">NWG</tspan></text><text x="179" y="412"><tspan dy="3.645971">Mar</tspan></text><text x="243" y="285"><tspan dy="3.645971">Kie</tspan></text><text x="56" y="355"><tspan dy="3.645971">MAO</tspan></text><text x="358" y="490"><tspan dy="3.64594">Gre</tspan></text><text x="71" y="180"><tspan dy="3.645971">NAO</tspan></text><text x="139" y="201"><tspan dy="3.645971">Cly</tspan></text><text x="216" y="290"><tspan dy="3.645971">Hol</tspan></text><text x="306" y="170"><tspan dy="3.645986">Swe</tspan></text><text x="516" y="455"><tspan dy="3.64594">Ank</tspan></text><text x="591" y="467"><tspan dy="3.64594">Arm</tspan></text><text x="356" y="390"><tspan dy="3.645971">Bud</tspan></text><text x="174" y="326"><tspan dy="3.645971">Pic</tspan></text><text x="251" y="407"><tspan dy="3.645971">Ven</tspan></text><text x="426" y="340"><tspan dy="3.645971">Ukr</tspan></text><text x="221" y="330"><tspan dy="3.645971">Ruh</tspan></text><text x="466" y="149"><tspan dy="3.645971">Stp</tspan></text><text x="424" y="205"><tspan dy="3.645986">sc</tspan></text><text x="478" y="122"><tspan dy="3.645971">nc</tspan></text><text x="256" y="235"><tspan dy="3.645971">Den</tspan></text><text x="161" y="358"><tspan dy="3.645971">Par</tspan></text><text x="381" y="160"><tspan dy="3.645971">Fin</tspan></text><text x="141" y="306"><tspan dy="3.645971">ENG</tspan></text><text x="161" y="254"><tspan dy="3.645971">Yor</tspan></text><text x="241" y="360"><tspan dy="3.645971">Mun</tspan></text><text x="136" y="275"><tspan dy="3.645971">Wal</tspan></text><text x="314" y="260"><tspan dy="3.645986">BAL</tspan></text><text x="221" y="408"><tspan dy="3.64594">Pie</tspan></text><text x="356" y="450"><tspan dy="3.645971">Ser</tspan></text><text x="261" y="220"><tspan dy="3.645971">SKA</tspan></text><text x="334" y="175"><tspan dy="3.645971">BOT</tspan></text><text x="278" y="292"><tspan dy="3.645971">Ber</tspan></text><text x="176" y="457"><tspan dy="3.645971">LYO</tspan></text><text x="466" y="510"><tspan dy="3.645971">Smy</tspan></text><text x="321" y="520"><tspan dy="3.645971">ION</tspan></text><text x="341" y="283"><tspan dy="3.645971">Pru</tspan></text><text x="361" y="343"><tspan dy="3.645971">Gal</tspan></text><text x="166" y="280"><tspan dy="3.645971">Lon</tspan></text><text x="136" y="536"><tspan dy="3.64594">Naf</tspan></text><text x="416" y="415"><tspan dy="3.64594">Rum</tspan></text><text x="289" y="347"><tspan dy="3.645971">Boh</tspan></text><text x="226" y="265"><tspan dy="3.645971">HEL</tspan></text><text x="546" y="350"><tspan dy="3.64594">Sev</tspan></text><text x="158" y="202"><tspan dy="3.645971">Edi</tspan></text><text x="91" y="450"><tspan dy="3.645971">Spa</tspan></text><text x="58" y="475"><tspan dy="3.645971">sc</tspan></text><text x="86" y="404"><tspan dy="3.645971">nc</tspan></text><text x="401" y="443"><tspan dy="3.645971">Bul</tspan></text><text x="405" y="462"><tspan dy="3.64594">sc</tspan></text><text x="416" y="440"><tspan dy="3.645971">ec</tspan></text><text x="101" y="270"><tspan dy="3.645971">IRI</tspan></text><text x="361" y="304"><tspan dy="3.645971">War</tspan></text><text x="446" y="15"><tspan dy="3.645982">BAR</tspan></text><text x="313" y="370"><tspan dy="3.645971">Vie</tspan></text><text x="297" y="470"><tspan dy="3.645971">Apu</tspan></text><text x="268" y="457"><tspan dy="3.645971">Rom</tspan></text><text x="216" y="555"><tspan dy="3.646001">Tun</tspan></text><text x="466" y="265"><tspan dy="3.645971">Mos</tspan></text><text x="166" y="491"><tspan dy="3.645971">WES</tspan></text><text x="386" y="260"><tspan dy="3.645986">Lvn</tspan></text><text x="196" y="230"><tspan dy="3.645971">NTH</tspan></text><text x="339" y="460"><tspan dy="3.64594">Alb</tspan></text><text x="576" y="535"><tspan dy="3.64594">Syr</tspan></text><text x="136" y="400"><tspan dy="3.645971">Gas</tspan></text><text x="136" y="345"><tspan dy="3.64594">Bre</tspan></text><text x="261" y="380"><tspan dy="3.64594">Tyr</tspan></text><text x="310" y="325"><tspan dy="3.645971">Sil</tspan></text><text x="461" y="550"><tspan dy="3.64594">EAS</tspan></text><text x="140" y="226"><tspan dy="3.645986">Lvp</tspan></text><text x="28" y="440"><tspan dy="3.645971">Por</tspan></text><text x="506" y="418"><tspan dy="3.645971">BLA</tspan></text><text x="398" y="510"><tspan dy="3.645971">AEG</tspan></text><text x="256" y="175"><tspan dy="3.645971">Nwy</tspan></text><text x="191" y="371"><tspan dy="3.64594">Bur</tspan></text></g><path d="m424 475h6v6h-6z" fill="#bb0" stroke="#000"/><path d="m278 469h6v6h-6z" fill="#0a0" stroke="#000"/><path d="m290 396h6v6h-6z" fill="#c00" stroke="#000"/><circle cx="186" cy="305" fill="#fff" r="3" stroke="#000"/><path d="m190 412h6v6h-6z" fill="#99f" stroke="#000"/><path d="m254 278h6v6h-6z" stroke="#000"/><circle cx="378" cy="507" fill="#fff" r="3" stroke="#000"/><circle cx="205" cy="284" fill="#fff" r="3" stroke="#000"/><circle cx="323" cy="196" fill="#fff" r="3" stroke="#000"/><path d="m482 469h6v6h-6z" fill="#bb0" stroke="#000"/><path d="m326 376h6v6h-6z" fill="#c00" stroke="#000"/><path d="m263 390h6v6h-6z" fill="#0a0" stroke="#000"/><path d="m418 187h6v6h-6z" fill="#b0b" stroke="#000"/><circle cx="272" cy="252" fill="#fff" r="3" stroke="#000"/><path d="m177 338h6v6h-6z" fill="#99f" stroke="#000"/><path d="m258 359h6v6h-6z" stroke="#000"/><circle cx="343" cy="419" fill="#fff" r="3" stroke="#000"/><path d="m281 298h6v6h-6z" stroke="#000"/><path d="m424 502h6v6h-6z" fill="#bb0" stroke="#000"/><path d="m156 289h6v6h-6z" fill="#00a" stroke="#000"/><circle cx="402" cy="413" fill="#fff" r="3" stroke="#000"/><path d="m479 393h6v6h-6z" fill="#b0b" stroke="#000"/><path d="m154 219h6v6h-6z" fill="#00a" stroke="#000"/><circle cx="80" cy="432" fill="#fff" r="3" stroke="#000"/><circle cx="377" cy="444" fill="#fff" r="3" stroke="#000"/><path d="m343 302h6v6h-6z" fill="#b0b" stroke="#000"/><path d="m298 363h6v6h-6z" fill="#c00" stroke="#000"/><path d="m268 448h6v6h-6z" fill="#0a0" stroke="#000"/><circle cx="220" cy="529" fill="#fff" r="3" stroke="#000"/><path d="m481 234h6v6h-6z" fill="#b0b" stroke="#000"/><path d="m106 322h6v6h-6z" fill="#99f" stroke="#000"/><path d="m142 253h6v6h-6z" fill="#00a" stroke="#000"/><circle cx="15" cy="434" fill="#fff" r="3" stroke="#000"/><circle cx="270" cy="187" fill="#fff" r="3" stroke="#000"/><path d="m233 415 5 16 9 11 3-4 13-4-10-16-7-2-6-1-4-4z" fill="none"/><path d="m408 470 2 3 4 2-4 7-1 5 8-1v3l6-2 9 6 20 2 14-4 2-12v-18l-4-4-22 3-2-2-10-3-4-5-6 1-8 3 1 10z" fill="none"/><path d="m271 464 5 10 14 13 4 15-5 9 1 3 5 1 13-15 3-9-7-7-11-3-14-23z" fill="none"/><path d="m322 480-25-24 3-3h-10l-12-10-6-19-12-7 1-16 9-3 6 1-1 4 3 7 4-9 4 1 3 16 17 18 25 18v23l4 3z" fill="none"/><path d="m238 431 9 11 1 5 8 11 15 6 5 10 14 13 4 15-5 9h-4v-3l-9 2h-13l-6-3-5 1-5 5-11 11-3-1-9 4-1-9-5-2v-26h2l4-22-2-10h-4v-4l5-4 2-6v-8l-1-5z" fill="none"/><path d="m276 399-1 4 3 7 4-9 4 1 3 16 17 18 25 18-1-9 7 1-7-9-3-8 4-5-1-8 2-6-9-2-2-10-10-4-3-11-9 2-5-5-5 5-13 1 3 3z" fill="none"/><path d="m191 299 3 4 12 3-1 5 3 4 2 11-5 5-13-8-8-8-15-4 4-10z" fill="none"/><path d="m362 33-5 6-14 5-19 10-4 10-10 11-1 9-6 2-11 25-15 21-8 2-5 8-6-1-22 13h-38l-27 27v16l-13-4-6 1 2-6 7-3 1-4-14-4v-177h214z" fill="none"/><path d="m142 417 7-14 8-6 11-2 5 1 5-6v-9l16 1 3 3 6-6 4 7-3 4 3 6-6 3 3 3-1 8 8 6-13 5-10 1-12-5-7-5-11 6v7l-4 2z" fill="none"/><path d="m244 254-1 3 2 6-1 7v3l-9 4-1-3-4-1-4 2 1 5-2 12-5 6-5-1-2 5 19 6 9 8 2 6 20-12-2-14 3-3-2-6 4-4v-8l-5-1-1-5-4-3v-3l-2-8z" fill="none"/><path d="m102 317-2 5 3 6 6 1 14 15-1 6 1 7 5 6-7 19 1 2-10 15-11-3-5 1-24-13-13-3-5-6-6-1-2 4-7-3-6 6 2 3-3 12-2 10-13 21h-3l-4 6 3 7 2 1-3 9 1 4-5 8 11 7 8-1 6 7 1 9 3 6v5l-4 1-16 22-17 2v-247h58z" fill="none"/><path d="m339 487 7 11h4l-3 2 5 8 15-1 4 4-16-1-5 4 7 7 2 12 1-5 7 8 1-5 8 6-5-17 7 1-1-8 9 3-1-7-15-15 1-3 7 3-10-11 3-6 8 7 3-1-1-6 5 1-6-6h12l-4-12-12 4h-7l-8 3-5 4h-6v6z" fill="none"/><path d="m70 261-6-11 3-8 4 3 10-11-7-6 6-3-2-7 4-1 7 3h5l1-2-1-2h3l4-4h9l9 5 1 10h10v-4l8-6v-3l-8-6-1-11 10-8 1-7 8-5v-177h-148v273h58z" fill="none"/><path d="m138 214-8-6-1-11 10-8 1-7 8-5 14 4-1 4-7 3-2 6-6 6-2 13z" fill="none"/><path d="m226 275 1 5-2 12-5 6-5-1-2 5-3 11-2 2-3-4 1-5-12-3-3-4 7-10 7-13v3h2l4-5z" fill="none"/><path d="m275 203 2 15-1 6 6 12-3 4v3l3 10 7 1 5-9 11-1 7-15-1-9 3-11 8-3 6-3 3-10-5-10-6-1 1-21 9-15 13-8 8-10-4-7 2-9 6-8 7 3-6-36-14-10-1 4-11-1 2 10-8-3-13 30-3 3 1 11-9 11 1 6-9 1-2 31-5 6 2 7-8 27z" fill="none"/><path d="m555 438-4-1-31 4-6-3-3 2-9-7-21 5-11 9-6 10 4 4v18l-2 12h7l17-11 11 2 7-2 23-20 15 2 9-2 2-11z" fill="none"/><path d="m609 493-25-15-21 1-1-8-6-4-1-7 2-11-2-11 15-11 19 15 5-3 9 2 6-1z" fill="none"/><path d="m394 376 1 6 6 3 5 11-5 6h-14l-20 4-2 6-5 1-18-3-4 2-3-2h-3l-9-2-2-10-10-4-3-11 3-8 11-5 13-16 2-4 13-3 10 4 8 2 9 7 1 3 6 2z" fill="none"/><path d="m169 311-16 4 2 5-5-1-2 10 11 2h6l7-3 16 4 4-9-8-8z" fill="none"/><path d="m278 443-6-19-12-7 1-16 9-3 6 1 3-10-3-3-8-1-9 3-4 6-5 3-4-5-13 12 3 7 4 4 6 1 7 2 10 16 11 13z" fill="none"/><path d="m383 327 2 5 14 6 5 16-1 6 8 1 3 11 9 4 9-4 2-12 11-10 15-5 6-38 4-4-2-8-12-3-66 14-4 3z" fill="none"/><path d="m213 302-3 11-2 2 2 11-5 5-1 7 7 8 8-2 18-22h6l-2-6-9-8z" fill="none"/><path d="m414 147-4 5 2 9-10 16 1 6 8 1 3 3h-6l-8 5-1 5-12-1-16 2-2 4 3 3 10 1 12-1 11 12 4 11 12 1 7-4 11-14 8-2 4 4 6-3-1-3 2-13 18-11z" fill="none"/><path d="m534 164 30-5 9-16 25-11 11-15v-117h-69l-5 9-5-3-13 13-1 14-3 5v-15l-6-3-2 6-6 7-7 15 3 10-7 2-9-3-2-2 4-5-8-7-7 2 6 17 6 4v8l-6-2-4 2-11 17 12 9-2 6-5 3-18-8-2 9 5 5 7 4-2 3-18-4-8-15v-9l-12-6-2-5 33 1 12-5 2-13-6-5-36-14-12 2-4-4-4 3-9 13-1 7 6 5-1 19 9 18 1 8 8 12 4 17 62 36 13 1 26-15z" fill="none"/><path d="m279 243-4-1-6 1-3-3 1-6-1-13-3 2-15 1-3 13-2 10 1 7 10 1h12l5 5 7-6-1-4 3-2z" fill="none"/><path d="m146 365 3 7 7 2 9-9 20-21 3-12-16-4-7 3h-6l-11-2-2 8z" fill="none"/><path d="m362 107 6 1 4 12-6 1-7 15-14 15 2 9 3 5-2 13 1 6 8 2 8 5 19-6 18-8 10-16-2-9 4-5-4-17-8-12-1-8-9-18 1-19-6-5 1-7-2-3 2-4-9-6-9 1-1 12-14 1-9-8-4 7 14 10z" fill="none"/><path d="m173 301-4 10-16 4 2 5-5-1-6-1-2-6-6-2v16l-12-3-2-5-20-1-14-14 12-12 10 1 10 3 4-4 10 3 13 1 13 3 8-2z" fill="none"/><path d="m163 226v13l5 7 2 6-1 13-3 4-13 2-3-7 1-16 4-9v-11z" fill="none"/><path d="m234 366 9 4 3-1 4 2 17-3 4 2-2-8h6l6-6-5-10-8-3-4-14 2-4 12 1 10-5-4-7 4-9-25 5-20 12h-6l-18 22-8 2 2 6-4 11 13 2 3-3 7 1z" fill="none"/><path d="m100 291 12-4 10-6 8 1-3-6-8-4h-3l-1-7 13-3h15l7 2 3 7-3 6-5 4 2 14-13-1-10-3-4 4-10-3z" fill="none"/><path d="m266 255 5 5 7-6-1-4 3-2-1-5 3 10 7 1 5-9 11-1 7-15-1-9h48l-10 9-2 14v5l1 6-4 8-7 2-3 9-6 1-2-9-12 1-7 7-13 2-8-1 1-7-7-1-14 9-5-1-1-5-4-3v-3l-2-8z" fill="none"/><path d="m207 386-3 4 3 6-6 3 3 3-1 8 8 6 11-6 11 5 3-4-3-7 13-12-3-4-14-3-2 5-6-5-8 2z" fill="none"/><path d="m365 412-5 1-18-3-4 2-3-2h-3l-2 6 1 8-4 5 3 8 7 9 9 6v14l4 5h6l5-4 8-3-4-3 6-5-5-17 5-1-3-5-3-8 2-4z" fill="none"/><path d="m241 209 5 1 20-9 4-8 5 10 2 15-1 6 6 12-3 4v3l-4-1-6 1-3-3 1-6-1-13-3 2-15 1h-7z" fill="none"/><path d="m311 220 3-11 8-3 6-3 3-10-5-10-6-1 1-21 9-15 13-8 8-10-4-7 2-9 6-8 7 3 6 1 4 12-6 1-7 15-14 15 2 9 3 5-2 13 1 6 8 2 8 5 19-6 18-8 1 6 8 1 3 3h-6l-8 5-1 5-12-1-16 2-2 4-4 2 3 6 4 3 1 8 4 6-4 2-7-1-7-8z" fill="none"/><path d="m294 275-8-1 1-7-7-1-14 9v8l-4 4 2 6-3 3 2 14 25-5 8-5 1-4-5-6z" fill="none"/><path d="m115 469-5-8 14-17 7-5 15-1 11-6 1-7v-7l11-6 7 5 12 5 10-1 13-5 11-6 11 5 5 16h-14l-3 3-10 2 2 15 5 3v4l-4 3-8 1-1 4h-51l-6-3-6 6z" fill="none"/><path d="m417 489 3 6-3 3v9l6 3 4 14 8-1v7l6-4 6 2 6 6 11-3 2-10 9-1 10 8 6 2 14-4 6-12 9 3 7-9 3 1 6-15 9-8 10-2 8-5-1-8-6-4-1-7-9 2-15-2-23 20-7 2-11-2-17 11h-7l-14 4-20-2-9-6z" fill="none"/><path d="m289 511 1 3 5 1 13-15 3-9-7-7 6-4 8 5h4v-5h13l4 7 7 11h4l-3 2 5 8 15-1 4 4-16-1-5 4 7 7 2 12 1-5 7 8 1-5 8 6 7 7-3 3 3 3 17 4v5h-168l2-8-2-7-7-9 6-4 5-7 11-11 11 6 15 12 8 1 1-11 3-8v-2z" fill="none"/><path d="m347 243v5l1 6-4 8-7 2-3 9-6 1-2-9-12 1-7 7-13 2-2 15 5 6-1 4 24 3 4-4 2-7 15-5 4 2 14-3 6-5 2-16-5-5-6 1-2-10z" fill="none"/><path d="m333 330h8l3 2 9-5 3-4 5 1 6 5 7-2 5-3 4 3 2 5 14 6 5 16-1 6 1 11-10 5-10-11-6-2-1-3-9-7-8-2-10-4-13 3-8-4-7 1-1-8 1 8-1-8 4 1 4-2z" fill="none"/><path d="m166 269 2 1 3-2 6 2 1 4-2 9-11 10 7 1-4 2-8 2-13-3-2-14 5-4 3-6z" fill="none"/><path d="m203 520-24-5-10 3-19-7-33-2-11 2-7 4-10-3-5 6-5 2-11-4v-5l-4 3-18-5-4-7-1-8-4 1-4 1-16 22-17 2v39h195l2-32z" fill="none"/><path d="m403 360 1 11-10 5 1 6 6 3 5 11-5 6h-14l-20 4-2 6 2 9 3 4 5-2 7 4 8-2 8 2 6-5 6-2h12l8 3 2-14 7-5-1-7-11 2-5-17 1-6-9-4-3-11z" fill="none"/><path d="m281 356-5-10-8-3-4-14 2-4 12 1 10-5 9 1 14 12 3-2 7 7 1 8-6 1-13-2-8 3-3 8z" fill="none"/><path d="m245 237-2 10 1 7-1 3 2 6-1 7v3l-9 4-1-3-4-1-4 2-15-1v-37z" fill="none"/><path d="m438 397 8-19 13-3 2 2-2 2 6 4 11-2 2 2-6 2-4 7 9 4v5l9 3 2-7 6-1 3-4 10-3-1-5-12 3-9-9 18-14 23-13 1 3-13 11 3 6h3l-5 13-4-1-1 3 7 7 11 1 26 12 13 2 6 9-3 10 19 15 5-3 9 2 6-1v-110h-12l-28-9-5-16-10-1-5-20-16-1-7 4-10-1-11-6-11 15-17-6-9 6 2 8-4 4-6 38-15 5-11 10-2 12-9 4-1 6 5 17z" fill="none"/><path d="m152 194 6-1 13 4-1 5-5 8-7 4-7 1 6 1 4 2 2 8-8 2-10-11-1-4 2-13z" fill="none"/><path d="m134 417-94 24-6 6 2 10-9 11 6 7 1 9 3 6 10-2 5 1 8-3 18 5 5 3 3-9 4-2 8 1 9-10 6-1 2-4-5-8 14-17 7-5 15-1 11-6 1-7-4 2-12-10-7-3z" fill="none"/><path d="m134 417-11-5-10-5-1-8-11-3-5 1-24-13-13-3-5-6-6-1-2 4-7-3-6 6 2 3-3 12 11-1-1 4 13 1 7 7-1 4-9 1-10 20-5-1 3 10" fill="none"/><path d="m413 464-1-10-41-16-5 1 5 17-6 5 4 3h7l12-4 4 12 8-4 8 2 5-6-1-10z" fill="none"/><path d="m412 454 8-3 6-1-4-9 3-14 4-1 1-3-8-3h-12l-6 2-6 5-8-2-8 2-7-4-5 2-3-4-2 4 3 8 3 5z" fill="none"/><path d="m100 291 12-4 10-6 8 1-3-6-8-4h-3l-1-7 13-3-2-6-5 1 11-7h3l4-10-3-11-6-2h-10l-10 5-1 14-11 13-11-2-17 4-12 12 30 30z" fill="none"/><path d="m333 330-7-3-3-5-3-19 4-4 2-7 15-5 4 2 14-3 6-5 7 2 7 7 7 19-3 18-4-3-5 3-7 2-6-5-5-1-3 4-9 5-3-2z" fill="none"/><path d="m540 0-5 9-5-3-13 13-1 14-3 5v-15l-6-3-2 6-6 7-7 15 3 10-7 2-9-3-2-2 4-5-8-7-7 2 6 17 6 4v8l-6-2-4 2-11 17 12 9-2 6-5 3-18-8-2 9 5 5 7 4-2 3-18-4-8-15v-9l-12-6-2-5 33 1 12-5 2-13-6-5-36-14-12 2-4-4-4 3-6-1 4-6-1-3-10-5-2 7-2-7-3-2-3 7-3-5-5 9v-9h-4v-33z" fill="none"/><path d="m292 357 3-8 8-3 13 2 6-1 7-1 8 4-2 4-13 16-11 5-3 8-9 2-5-5 1-18z" fill="none"/><path d="m304 484 6-4 8 5h4v-5l-25-24 3-3h-10l-12-10-4 4 5 4 1 4-1 3 14 23z" fill="none"/><path d="m247 442 1 5 8 11 15 6 8-6 1-3-1-4-5-4-11-13-13 4z" fill="none"/><path d="m232 559 2-8-2-7-7-9 6-4 5-7-3-1-9 4-1-9-5-2-6 1-4 4-5-1-6 7-2 32z" fill="none"/><path d="m609 117-11 15-25 11-9 16-30 5-19 5-26 15-13-1-18 11-2 13 1 3-6 3-4-4-8 2-11 14-7 4-12-1-4 11-1 36-12 3-3 7-10 5 7 19 4-3 66-14 12 3 9-6 17 6 11-15 11 6 10 1 7-4 16 1 5 20 10 1 5 16 28 9h12z" fill="none"/><path d="m37 490 10-2 5 1 8-3 18 5 5 3 3-9 4-2 8 1 9-10 6-1 2-4h27l8 2 4-5h51l1 10-2 9 4 7h4l5-3 1 1v26l-6 1-4 4-5-1-24-5-10 3-19-7-33-2-11 2-7 4-10-3-5 6-5 2-11-4v-5l-4 3-18-5-4-7-1-8-4 1z" fill="none"/><path d="m369 202-4 2 3 6 4 3 1 8 4 6-4 2-7-1-7-8-10 9-2 14 7 8 2 10 6-1 5 5-2 16 7 2 7 7 10-5 3-7 12-3 1-36 4-11-4-11-11-12-12 1-10-1z" fill="none"/><path d="m245 237 3-13h-7v-15l-10-8-2-9 4-6-2-6 2-13 4-7-1-6h-38l-27 27v16l-1 5-5 8-7 4-7 1 6 1 4 2 2 8v13l5 7 2 6-1 13-3 4 2 1 3-2 6 2 1 4-2 9-11 10 7 1-4 2 5 5 18-2 7-10 7-13v3h2l4-5v-37z" fill="none"/><path d="m331 454v23l4 3 4 7 11-10v-6l-4-5v-14l-9-6-7-1z" fill="none"/><path d="m530 509 6-15 9-8 10-2 8-5 21-1 25 15v66h-81l4-24-6-5-1-12z" fill="none"/><path d="m128 363-7 19 1 2-10 15 1 8 10 5 11 5 1-3 7 3 7-14 8-6 11-2-5-8 2-4-7-3-2-6-7-2-3-7z" fill="none"/><path d="m150 319-6-1-2-6-6-2v16l-12-3-2-5-20-1-2 5 3 6 6 1 14 15-1 6 1 7 5 6 18 2v-28l2-8z" fill="none"/><path d="m234 366 9 4 3-1 4 2 17-3 4 2-2-8h6l6-6 11 1 3 5-1 18-5 5-13 1-8-1-9 3-4 6-5 3-4-5-3-4 2-4-4-6-7-4z" fill="none"/><path d="m288 321 9 1 14 12 3-2 7 7 4 1 4-2 4-8-7-3-3-5-3-19-24-3-8 5-4 9z" fill="none"/><path d="m435 530 6-4 6 2 6 6 11-3 2-10 9-1 10 8 6 2 14-4 6-12 9 3 7-9 3 1-5 9 1 12 6 5-4 24h-128v-5l14-2 2-3z" fill="none"/><path d="m128 262-2-6-5 1 11-7h3l4-10-3-11-6-2v-4l8-6v-3l6-1 1 4 10 11v11l-4 9-1 16-7-2z" fill="none"/><path d="m32 396-2 10-13 21h-3l-4 6 3 7 2 1-3 9 1 4-5 8 11 7 8-1 9-11-2-10 6-6-3-10 5 1 10-20 9-1 1-4-7-7-13-1 1-4z" fill="none"/><path d="m440 458-10-3-4-5-4-9 3-14 4-1 1-3 2-14 7-5-1-7 8-19 13-3 2 2-2 2 6 4 11-2 2 2-6 2-4 7 9 4v5l9 3 2-7 6-1 3-4 10-3-1-5-12 3-9-9 18-14 23-13 1 3-13 11 3 6h3l-5 13-4-1-1 3 7 7 11 1 26 12 13 2 6 9-3 10-15 11-4-1-31 4-6-3-3 2-9-7-21 5-11 9-6 10-22 3z" fill="none"/><path d="m376 537-5-17 7 1-1-8 9 3-1-7-15-15 1-3 7 3-10-11 3-6 8 7 3-1-1-6 5 1-6-6h12l8-4 8 2 2 3 4 2-4 7-1 5 8-1v3l3 6-3 3v9l6 3 4 14 8-1v7l-19 19-4-2-25-1-4-2z" fill="none"/><path d="m397 48-6-1 4-6-1-3-10-5-2 7-2-7-3-2-3 7-3-5-5 9v-9h-4l-5 6-14 5-19 10-4 10-10 11-1 9-6 2-11 25-15 21-8 2-5 8-6-1-22 13 1 6-4 7-2 13 2 6-4 6 2 9 10 8 5 1 20-9 4-8 5 10 4 1 8-27-2-7 5-6 2-31 9-1-1-6 9-11-1-11 3-3 13-30 8 3-2-10 11 1 1-4 4-7 9 8 14-1 1-12 9-1 9 6-2 4 2 3z" fill="none"/><path d="m192 323 13 8-1 7 7 8 2 6-4 11-1 4-14 15-16-1v9l-5 6-5-1-5-8 2-4-7-3-2-6 9-9 20-21 3-12z" fill="none"/><path d="m290 396h6v6h-6z" fill="#fff" stroke="#000"/><path d="m326 376h6v6h-6z" fill="#fff" stroke="#000"/><path d="m298 363h6v6h-6z" fill="#fff" stroke="#000"/><path d="m156 289h6v6h-6z" fill="#fff" stroke="#000"/><path d="m142 253h6v6h-6z" fill="#fff" stroke="#000"/><path d="m154 219h6v6h-6z" fill="#fff" stroke="#000"/><path d="m177 338h6v6h-6z" fill="#fff" stroke="#000"/><path d="m190 412h6v6h-6z" fill="#fff" stroke="#000"/><path d="m106 322h6v6h-6z" fill="#fff" stroke="#000"/><path d="m281 298h6v6h-6z" fill="#fff" stroke="#000"/><path d="m258 359h6v6h-6z" fill="#fff" stroke="#000"/><path d="m254 278h6v6h-6z" fill="#fff" stroke="#000"/><path d="m268 448h6v6h-6z" fill="#fff" stroke="#000"/><path d="m278 469h6v6h-6z" fill="#fff" stroke="#000"/><path d="m263 390h6v6h-6z" fill="#fff" stroke="#000"/><path d="m479 393h6v6h-6z" fill="#fff" stroke="#000"/><path d="m418 187h6v6h-6z" fill="#fff" stroke="#000"/><path d="m481 234h6v6h-6z" fill="#fff" stroke="#000"/><path d="m343 302h6v6h-6z" fill="#fff" stroke="#000"/><path d="m424 475h6v6h-6z" fill="#fff" stroke="#000"/><path d="m482 469h6v6h-6z" fill="#fff" stroke="#000"/><path d="m424 502h6v6h-6z" fill="#fff" stroke="#000"/></svg>